<svg width="62" height="72" viewBox="0 0 62 72" fill="none" xmlns="http://www.w3.org/2000/svg">
<path d="M24.1606 7.70236H33.9695C35.2162 7.70255 36.4118 8.19782 37.2935 9.07928L58.0516 29.8374C58.933 30.719 59.4283 31.9146 59.4285 33.1613V61.7797C59.4285 63.6505 58.6853 65.4446 57.3625 66.7674C56.0397 68.0902 54.2456 68.8333 52.3749 68.8333H21.8094C19.9387 68.8333 18.1446 68.0902 16.8218 66.7674C15.499 65.4446 14.7559 63.6505 14.7559 61.7797V42.9702" stroke="#2D9CDB" stroke-width="4.70238" stroke-linecap="round" stroke-linejoin="round"/>
<path d="M35.917 8.87799V26.5119C35.917 27.7591 36.4124 28.9551 37.2943 29.837C38.1762 30.7189 39.3722 31.2143 40.6194 31.2143H58.2533" stroke="#2D9CDB" stroke-width="4.70238" stroke-linecap="round" stroke-linejoin="round"/>
<path d="M17.1071 10.0536V32.3899C17.1133 32.8547 17.0262 33.3161 16.8512 33.7467C16.6761 34.1774 16.4165 34.5686 16.0878 34.8973C15.7591 35.2261 15.3679 35.4856 14.9372 35.6607C14.5066 35.8358 14.0452 35.9228 13.5804 35.9167C11.817 35.9167 10.0536 34.5794 10.0536 32.3899V11.2292C10.0536 6.73398 12.4885 3 17.1071 3C21.7258 3 24.1607 6.64434 24.1607 11.1381V31.5273C24.1607 37.8461 20.0726 42.9702 13.5804 42.9702C7.08813 42.9702 3 37.8476 3 31.5273V19.4583" stroke="#2D9CDB" stroke-width="4.70238" stroke-miterlimit="10" stroke-linecap="round"/>
</svg>
