<svg width="66" height="66" viewBox="0 0 66 66" fill="none" xmlns="http://www.w3.org/2000/svg">
<path d="M33 0C14.7763 0 0 15.1594 0 33.8397C0 48.7928 9.45803 61.4625 22.5696 65.941C22.7535 65.981 22.9413 66.0008 23.1295 66C24.3522 66 24.8236 65.1013 24.8236 64.3205C24.8236 63.5102 24.7942 61.3888 24.7795 58.5602C23.6879 58.8161 22.5711 58.9496 21.45 58.958C15.1004 58.958 13.6567 54.0228 13.6567 54.0228C12.154 50.1187 9.98839 49.0728 9.98839 49.0728C7.11562 47.0544 9.97366 46.9955 10.1946 46.9955H10.2094C13.5241 47.2902 15.2625 50.5018 15.2625 50.5018C16.9125 53.3893 19.1223 54.1995 21.0964 54.1995C22.4017 54.1734 23.6869 53.8722 24.8678 53.3156C25.1625 51.1352 26.017 49.6473 26.9598 48.7928C19.6379 47.9384 11.933 45.0361 11.933 32.0719C11.933 28.3741 13.2147 25.354 15.3214 22.9969C14.9826 22.1424 13.8482 18.6951 15.6455 14.0397C15.8866 13.982 16.1344 13.9573 16.3821 13.9661C17.5754 13.9661 20.2714 14.4228 24.7205 17.5165C30.1265 16.004 35.844 16.004 41.25 17.5165C45.6991 14.4228 48.3951 13.9661 49.5884 13.9661C49.8361 13.9573 50.0839 13.982 50.325 14.0397C52.1223 18.6951 50.9879 22.1424 50.6491 22.9969C52.7558 25.3687 54.0375 28.3888 54.0375 32.0719C54.0375 45.0656 46.3178 47.9236 38.9665 48.7634C40.1451 49.8094 41.2058 51.8719 41.2058 55.0245C41.2058 59.5473 41.1616 63.2009 41.1616 64.3058C41.1616 65.1013 41.6183 66 42.841 66C43.039 66.0008 43.2365 65.9811 43.4303 65.941C56.5567 61.4625 66 48.7781 66 33.8397C66 15.1594 51.2236 0 33 0Z" fill="#2D9CDB"/>
</svg>
