<svg width="68" height="60" viewBox="0 0 68 60" fill="none" xmlns="http://www.w3.org/2000/svg">
<path d="M12.75 21.75C11.0013 21.75 9.35221 22.082 7.80273 22.7461C6.25326 23.4102 4.90299 24.3288 3.75195 25.502C2.60091 26.653 1.69336 28.0033 1.0293 29.5527C0.365234 31.1022 0.0332031 32.7513 0.0332031 34.5C0.0332031 36.2708 0.365234 37.931 1.0293 39.4805C1.69336 41.0078 2.60091 42.3581 3.75195 43.5312C4.90299 44.6823 6.25326 45.5898 7.80273 46.2539C9.35221 46.918 11.0013 47.25 12.75 47.25C14.0781 47.25 15.373 47.0508 16.6348 46.6523C17.8743 46.2318 19.0365 45.6341 20.1211 44.8594L34.6309 59.3691C35.0514 59.7897 35.5495 60 36.125 60C36.7005 60 37.1986 59.7897 37.6191 59.3691C38.0397 58.9486 38.25 58.4505 38.25 57.875C38.25 57.2995 38.0397 56.8014 37.6191 56.3809L23.1094 41.8711C23.8841 40.7865 24.4818 39.6243 24.9023 38.3848C25.3008 37.123 25.5 35.8281 25.5 34.5C25.5 32.7513 25.168 31.1022 24.5039 29.5527C23.8398 28.0033 22.9323 26.653 21.7812 25.502C20.6081 24.3288 19.2578 23.4102 17.7305 22.7461C16.181 22.082 14.5208 21.75 12.75 21.75ZM12.75 43C11.5768 43 10.4811 42.7786 9.46289 42.3359C8.42253 41.8932 7.51497 41.2845 6.74023 40.5098C5.96549 39.735 5.35677 38.8385 4.91406 37.8203C4.47135 36.7799 4.25 35.6732 4.25 34.5C4.25 33.3268 4.47135 32.2311 4.91406 31.2129C5.35677 30.1725 5.96549 29.265 6.74023 28.4902C7.51497 27.7155 8.42253 27.1068 9.46289 26.6641C10.4811 26.2214 11.5768 26 12.75 26C13.9232 26 15.0299 26.2214 16.0703 26.6641C17.0885 27.1068 17.985 27.7155 18.7598 28.4902C19.5345 29.265 20.1432 30.1725 20.5859 31.2129C21.0286 32.2311 21.25 33.3268 21.25 34.5C21.25 35.6732 21.0286 36.7799 20.5859 37.8203C20.1432 38.8385 19.5345 39.735 18.7598 40.5098C17.985 41.2845 17.0885 41.8932 16.0703 42.3359C15.0299 42.7786 13.9232 43 12.75 43ZM29.75 43H51C53.3464 43 55.5488 42.5573 57.6074 41.6719C59.666 40.7643 61.4701 39.5469 63.0195 38.0195C64.5469 36.4701 65.7533 34.666 66.6387 32.6074C67.5241 30.5488 67.9668 28.3464 67.9668 26C67.9668 23.6536 67.5241 21.4512 66.6387 19.3926C65.7533 17.334 64.5469 15.541 63.0195 14.0137C61.4701 12.4642 59.666 11.2467 57.6074 10.3613C55.5488 9.45378 53.3464 9 51 9C49.9818 9 48.9525 9.09961 47.9121 9.29883C47.0267 7.94857 45.9974 6.73112 44.8242 5.64648C43.651 4.56185 42.3783 3.64323 41.0059 2.89062C39.6335 2.11589 38.1725 1.5293 36.623 1.13086C35.0736 0.710286 33.4909 0.5 31.875 0.5C29.4401 0.5 27.138 0.931641 24.9688 1.79492C22.7773 2.6582 20.8294 3.85352 19.125 5.38086C17.4206 6.9082 16.015 8.71224 14.9082 10.793C13.8014 12.8516 13.1152 15.0872 12.8496 17.5C13.5801 17.5 14.3105 17.5664 15.041 17.6992C15.7493 17.8099 16.4577 17.9648 17.166 18.1641C17.3431 16.2604 17.8522 14.4896 18.6934 12.8516C19.5345 11.2135 20.6191 9.79688 21.9473 8.60156C23.2533 7.40625 24.7585 6.46549 26.4629 5.7793C28.1673 5.0931 29.9714 4.75 31.875 4.75C33.4245 4.75 34.9186 4.98242 36.3574 5.44727C37.7962 5.91211 39.1243 6.5651 40.3418 7.40625C41.5371 8.2474 42.5996 9.26562 43.5293 10.4609C44.459 11.6341 45.2005 12.9512 45.7539 14.4121C47.4141 13.6374 49.1628 13.25 51 13.25C52.7708 13.25 54.431 13.582 55.9805 14.2461C57.5078 14.9102 58.8581 15.8288 60.0312 17.002C61.1823 18.153 62.0898 19.5033 62.7539 21.0527C63.418 22.6022 63.75 24.2513 63.75 26C63.75 27.7708 63.418 29.431 62.7539 30.9805C62.0898 32.5078 61.1823 33.8581 60.0312 35.0312C58.8581 36.1823 57.5078 37.0898 55.9805 37.7539C54.431 38.418 52.7708 38.75 51 38.75H29.75V43Z" fill="#2D9CDB"/>
</svg>
