<svg width="51" height="70" viewBox="0 0 51 70" fill="none" xmlns="http://www.w3.org/2000/svg">
<path d="M37.2334 27.9619V14.4111C37.2334 11.3847 36.0312 8.48225 33.8912 6.34225C31.7512 4.20224 28.8487 3 25.8223 3C22.7959 3 19.8934 4.20224 17.7534 6.34225C15.6134 8.48225 14.4111 11.3847 14.4111 14.4111V27.9619" stroke="#2D9CDB" stroke-width="4.56446" stroke-linecap="round" stroke-linejoin="round"/>
<path d="M41.7979 27.9619H9.84669C6.06537 27.9619 3 31.0273 3 34.8086V59.9131C3 63.6945 6.06537 66.7598 9.84669 66.7598H41.7979C45.5792 66.7598 48.6446 63.6945 48.6446 59.9131V34.8086C48.6446 31.0273 45.5792 27.9619 41.7979 27.9619Z" stroke="#2D9CDB" stroke-width="4.56446" stroke-linecap="round" stroke-linejoin="round"/>
</svg>
