<svg width="66" height="56" viewBox="0 0 80 60" fill="none" xmlns="http://www.w3.org/2000/svg">
<path d="M69.8958 0H6.02083C3.04292 0 0.625 2.53458 0.625 5.65396V50.3402C0.625 53.461 3.04292 56 6.02083 56H69.8958C72.8679 56 75.2917 53.461 75.2917 50.3402V5.65396C75.2917 2.53458 72.8738 0 69.8958 0ZM42.625 44.3333H33.2917V28L26.2917 37.3333L19.2917 28V44.3333H9.95833V11.6667H19.2917L26.2917 23.3333L33.2917 11.6667H42.625V44.3333ZM56.625 44.3333L44.9583 28H51.9656L51.9583 11.6667H61.2917V28H68.2917L56.625 44.3333Z" fill="#2D9CDB"/>
</svg>
