<svg width="64" height="64" viewBox="0 0 64 64" fill="none" xmlns="http://www.w3.org/2000/svg">
<path d="M31.7671 63.5342C14.2509 63.5342 0 49.2833 0 31.7671C0 14.2509 14.2509 0 31.7671 0C49.2833 0 63.5342 14.2509 63.5342 31.7671C63.5342 49.2833 49.2833 63.5342 31.7671 63.5342ZM31.7671 4.88724C16.9526 4.88724 4.88724 16.9526 4.88724 31.7671C4.88724 46.5816 16.9526 58.6469 31.7671 58.6469C46.5816 58.6469 58.6469 46.5892 58.6469 31.7671C58.6469 16.945 46.5892 4.88724 31.7671 4.88724Z" fill="#2D9CDB"/>
<path d="M42.1013 37.2651C39.4439 37.2651 36.8766 36.086 34.8713 33.9463C32.8878 31.7949 31.7019 29.0284 31.5113 26.1084C31.2868 22.947 32.2566 20.0375 34.242 17.9192C36.2275 15.8009 39.0025 14.6616 42.1013 14.6616C45.1773 14.6616 47.9615 15.8253 49.9408 17.9391C51.9201 20.0528 52.9144 22.979 52.6899 26.1115C52.4957 29.0297 51.3102 31.7941 49.3299 33.9463C47.3231 36.086 44.7573 37.2651 42.1013 37.2651Z" fill="#2D9CDB"/>
<path d="M17.6888 37.7782C13.1436 37.7782 9.14679 33.5767 8.78024 28.4115C8.59239 25.7663 9.41406 23.3211 11.0971 21.5266C12.7801 19.7321 15.1016 18.7775 17.6872 18.7775C20.2729 18.7775 22.5928 19.7611 24.2652 21.548C25.9375 23.3349 26.7852 25.7968 26.5942 28.4207C26.2216 33.5782 22.2263 37.7782 17.6888 37.7782Z" fill="#2D9CDB"/>
<path d="M56.8714 46.9296C56.6286 46.2118 56.0376 45.4466 54.8524 44.7212C51.2694 42.5326 46.8618 41.3749 42.1028 41.3749C37.434 41.3749 32.9041 42.5815 29.3456 44.7731C25.3365 47.2427 22.6424 50.844 21.5565 55.186C21.2999 56.2077 20.9258 58.1092 21.3259 59.1737C27.7473 61.6156 34.8217 61.7276 41.3172 59.4903C47.8127 57.2529 53.3175 52.808 56.873 46.9296H56.8714Z" fill="#2D9CDB"/>
<path d="M17.6595 53.9688C18.7392 49.6604 21.0378 46.0683 24.6039 43.1634C24.7725 43.0243 24.9007 42.8426 24.9752 42.6371C25.0496 42.4316 25.0676 42.2099 25.0272 41.9951C24.9868 41.7803 24.8895 41.5803 24.7455 41.4159C24.6015 41.2515 24.416 41.1287 24.2084 41.0604C22.3757 40.4754 20.2833 40.1624 17.6885 40.1624C14.0505 40.1624 10.1881 41.1474 7.28171 42.9374C6.45699 43.446 5.64754 43.6415 5.02441 43.8156C7.52618 49.3449 11.675 53.9663 16.9035 57.0478L17.1769 57.0264C17.2366 55.9938 17.3983 54.9696 17.6595 53.9688Z" fill="#2D9CDB"/>
</svg>
