<svg width="64" height="64" viewBox="0 0 64 64" fill="none" xmlns="http://www.w3.org/2000/svg">
<path d="M26.398 3C21.7053 3 17.1179 4.39157 13.216 6.99874C9.31405 9.60591 6.27288 13.3116 4.47703 17.6472C2.68118 21.9827 2.2113 26.7535 3.12682 31.3561C4.04234 35.9587 6.30213 40.1864 9.62043 43.5047C12.9387 46.823 17.1665 49.0828 21.7691 49.9984C26.3717 50.9139 31.1425 50.444 35.478 48.6481C39.8136 46.8523 43.5193 43.8111 46.1264 39.9092C48.7336 36.0073 50.1252 31.4199 50.1252 26.7271C50.1248 20.4344 47.6248 14.3996 43.1752 9.94996C38.7256 5.50035 32.6907 3.0004 26.398 3V3Z" stroke="#2D9CDB" stroke-width="4.83333" stroke-miterlimit="10"/>
<path d="M44.1006 44.4293L60.6714 61" stroke="#2D9CDB" stroke-width="4.83333" stroke-miterlimit="10" stroke-linecap="round"/>
</svg>
