<?xml version="1.0" encoding="iso-8859-1"?>
<!-- Generator: Adobe Illustrator 18.1.1, SVG Export Plug-In . SVG Version: 6.00 Build 0)  -->
<svg version="1.1" fill="#2D9CDB" id="Capa_1" xmlns="http://www.w3.org/2000/svg" xmlns:xlink="http://www.w3.org/1999/xlink" x="0px" y="0px"
	 viewBox="0 0 26 26" style="enable-background:new 0 0 26 26;" xml:space="preserve">
<g>
	<path style="fill:#2D9CDB;" d="M16,5.5v-3c0-0.551,0.449-1,1-1h4c0.551,0,1,0.449,1,1v3H16z"/>
	<path style="fill:#2D9CDB;" d="M4,5.5v-3c0-0.551,0.449-1,1-1h4c0.551,0,1,0.449,1,1v3H4z"/>
	<path style="fill:#2D9CDB;" d="M26,21.5c0,1.657-1.344,3-3,3H3c-1.656,0-3-1.343-3-3v-12c0-1.657,1.344-3,3-3h20
		c1.656,0,3,1.343,3,3V21.5z"/>
</g>
<g>
</g>
<g>
</g>
<g>
</g>
<g>
</g>
<g>
</g>
<g>
</g>
<g>
</g>
<g>
</g>
<g>
</g>
<g>
</g>
<g>
</g>
<g>
</g>
<g>
</g>
<g>
</g>
<g>
</g>
</svg>
