<svg width="309" height="352" viewBox="0 0 309 352" fill="none" xmlns="http://www.w3.org/2000/svg">
<path fill-rule="evenodd" clip-rule="evenodd" d="M73.064 0.745763C73.064 1.15593 72.5259 1.49153 71.8684 1.49153C70.3302 1.49153 68.4975 3.28732 68.4975 4.79451C68.4975 5.43885 68.155 5.9661 67.7365 5.9661C67.3179 5.9661 66.9754 6.63729 66.9754 7.45763C66.9754 8.27797 66.6329 8.94915 66.2143 8.94915C65.7911 8.94915 65.4532 10.9381 65.4532 13.4237C65.4532 15.9094 65.7911 17.8983 66.2143 17.8983C66.6329 17.8983 66.9754 18.4129 66.9754 19.0416C66.9754 20.5264 71.9042 25.3559 73.4195 25.3559C74.0611 25.3559 74.5862 25.6915 74.5862 26.1017C74.5862 26.5163 76.616 26.8475 79.1527 26.8475C81.6894 26.8475 83.7192 26.5163 83.7192 26.1017C83.7192 25.6915 84.4042 25.3559 85.2414 25.3559C86.0786 25.3559 86.7635 25.0203 86.7635 24.6102C86.7635 24.2 87.3016 23.8644 87.9592 23.8644C89.4974 23.8644 91.33 22.0686 91.33 20.5614C91.33 19.9171 91.6725 19.3898 92.0911 19.3898C92.5386 19.3898 92.8522 16.7729 92.8522 13.0315V6.67234L89.4471 3.33654L86.0428 0H79.553C75.7347 0 73.064 0.307254 73.064 0.745763ZM84.8951 7.79695C86.3313 9.20346 86.7635 10.4123 86.7635 13.0173C86.7635 14.8817 86.4211 16.4068 86.0025 16.4068C85.5839 16.4068 85.2414 17.078 85.2414 17.8983C85.2414 18.8924 84.7337 19.3898 83.7192 19.3898C82.882 19.3898 82.197 19.7254 82.197 20.1356C82.197 20.5458 81.1696 20.8814 79.9138 20.8814C78.658 20.8814 77.6305 20.5458 77.6305 20.1356C77.6305 19.7254 77.0924 19.3898 76.4349 19.3898C74.8967 19.3898 73.064 17.594 73.064 16.0868C73.064 15.4425 72.7215 14.9153 72.303 14.9153C71.8844 14.9153 71.5419 13.9085 71.5419 12.678C71.5419 11.4475 71.8844 10.4407 72.303 10.4407C72.7215 10.4407 73.064 9.76949 73.064 8.94915C73.064 7.95505 73.5717 7.45763 74.5862 7.45763C75.4234 7.45763 76.1084 7.12203 76.1084 6.71186C76.1084 6.30169 77.6648 5.9661 79.5675 5.9661C82.226 5.9661 83.4597 6.38969 84.8951 7.79695ZM284.645 6.71186C284.645 7.12203 283.351 7.45763 281.769 7.45763C279.766 7.45763 278.56 7.91031 277.796 8.94915C277.192 9.76949 276.244 10.4407 275.69 10.4407C274.384 10.4407 270.946 13.8093 270.946 15.0898C270.946 15.6327 270.261 16.5612 269.424 17.1525C268.363 17.9013 267.901 19.0833 267.901 21.0462C267.901 22.5959 267.559 23.8644 267.14 23.8644C266.722 23.8644 266.379 25.2068 266.379 26.8475C266.379 28.4881 266.722 29.8305 267.14 29.8305C267.559 29.8305 267.901 31.1729 267.901 32.8136C267.901 34.4542 268.244 35.7966 268.663 35.7966C269.081 35.7966 269.424 36.3089 269.424 36.9346C269.424 38.415 275.884 44.7458 277.395 44.7458C278.034 44.7458 278.557 45.0814 278.557 45.4915C278.557 45.9017 279.584 46.2373 280.84 46.2373C282.096 46.2373 283.123 46.5729 283.123 46.9831C283.123 47.3977 285.153 47.7288 287.69 47.7288C290.226 47.7288 292.256 47.3977 292.256 46.9831C292.256 46.5729 293.284 46.2373 294.539 46.2373C295.795 46.2373 296.823 45.9017 296.823 45.4915C296.823 45.0814 297.346 44.7458 297.984 44.7458C299.495 44.7458 305.956 38.415 305.956 36.9346C305.956 36.3089 306.298 35.7966 306.717 35.7966C307.135 35.7966 307.478 34.7898 307.478 33.5593C307.478 32.3288 307.82 31.322 308.239 31.322C308.662 31.322 309 29.3331 309 26.8475C309 24.3618 308.662 22.3729 308.239 22.3729C307.82 22.3729 307.478 21.3661 307.478 20.1356C307.478 18.9051 307.135 17.8983 306.717 17.8983C306.298 17.8983 305.956 17.386 305.956 16.7603C305.956 15.2799 299.495 8.94915 297.984 8.94915C297.346 8.94915 296.823 8.61356 296.823 8.20339C296.823 7.79322 295.453 7.45763 293.778 7.45763C292.104 7.45763 290.734 7.12203 290.734 6.71186C290.734 6.30169 289.364 5.9661 287.69 5.9661C286.015 5.9661 284.645 6.30169 284.645 6.71186ZM290.734 12.678C290.734 13.0881 291.599 13.4237 292.656 13.4237C294.807 13.4237 301.389 19.3115 301.389 21.2348C301.389 21.8605 301.732 22.3729 302.15 22.3729C302.573 22.3729 302.911 24.3618 302.911 26.8475C302.911 29.3331 302.573 31.322 302.15 31.322C301.732 31.322 301.389 31.8344 301.389 32.4601C301.389 33.9404 294.928 40.2712 293.418 40.2712C292.779 40.2712 292.256 40.6068 292.256 41.0169C292.256 41.4271 290.544 41.7627 288.451 41.7627C286.358 41.7627 284.645 41.4271 284.645 41.0169C284.645 40.6068 283.78 40.2712 282.723 40.2712C280.101 40.2712 273.99 34.2835 273.99 31.7143C273.99 30.6784 273.648 29.8305 273.229 29.8305C272.81 29.8305 272.468 28.4881 272.468 26.8475C272.468 25.2068 272.81 23.8644 273.229 23.8644C273.648 23.8644 273.99 23.0165 273.99 21.9806C273.99 19.4115 280.101 13.4237 282.723 13.4237C283.78 13.4237 284.645 13.0881 284.645 12.678C284.645 12.2678 286.015 11.9322 287.69 11.9322C289.364 11.9322 290.734 12.2678 290.734 12.678ZM126.34 14.1695C126.34 14.5797 125.655 14.9153 124.818 14.9153C123.981 14.9153 123.296 15.2508 123.296 15.661C123.296 16.0712 122.767 16.4068 122.12 16.4068C120.597 16.4068 117.207 19.7284 117.207 21.2207C117.207 21.8546 116.864 22.3729 116.446 22.3729C116.027 22.3729 115.685 23.0441 115.685 23.8644C115.685 24.6847 115.342 25.3559 114.924 25.3559C114.5 25.3559 114.163 27.3449 114.163 29.8305C114.163 32.3161 114.5 34.3051 114.924 34.3051C115.342 34.3051 115.685 35.3119 115.685 36.5424C115.685 37.7729 116.027 38.7797 116.446 38.7797C116.864 38.7797 117.207 39.3159 117.207 39.9721C117.207 40.6277 118.234 42.105 119.49 43.2542C120.746 44.4035 121.773 45.8808 121.773 46.5363C121.773 47.1926 122.116 47.7288 122.534 47.7288C122.953 47.7288 123.296 48.7356 123.296 49.9661C123.296 51.1966 123.638 52.2034 124.057 52.2034C124.475 52.2034 124.818 52.539 124.818 52.9492C124.818 53.3593 123.79 53.6949 122.534 53.6949C121.279 53.6949 120.251 54.0305 120.251 54.4407C120.251 54.8665 117.968 55.1864 114.924 55.1864C111.879 55.1864 109.596 55.5064 109.596 55.9322C109.596 56.3424 108.226 56.678 106.552 56.678C104.877 56.678 103.507 57.0136 103.507 57.4237C103.507 57.8339 102.48 58.1695 101.224 58.1695C99.9683 58.1695 98.9409 58.5051 98.9409 58.9153C98.9409 59.3254 97.9134 59.661 96.6576 59.661C95.4018 59.661 94.3744 59.9966 94.3744 60.4068C94.3744 60.8169 93.6894 61.1525 92.8522 61.1525C92.015 61.1525 91.33 61.4881 91.33 61.8983C91.33 62.3085 90.6451 62.6441 89.8079 62.6441C88.9707 62.6441 88.2857 62.9797 88.2857 63.3898C88.2857 63.8 87.6007 64.1356 86.7635 64.1356C85.9264 64.1356 85.2414 64.4712 85.2414 64.8814C85.2414 65.2915 84.5564 65.6271 83.7192 65.6271C82.882 65.6271 82.197 65.9627 82.197 66.3729C82.197 66.7831 81.5121 67.1186 80.6749 67.1186C79.8377 67.1186 79.1527 67.4542 79.1527 67.8644C79.1527 68.2746 78.5431 68.6102 77.7987 68.6102C77.0536 68.6102 75.9508 69.2814 75.3473 70.1017C74.7437 70.922 73.7779 71.5932 73.201 71.5932C72.6249 71.5932 71.1925 72.6 70.0197 73.8305C68.8469 75.061 67.4937 76.0678 67.0142 76.0678C66.5339 76.0678 63.7765 78.4169 60.8867 81.2881C56.098 86.0461 53.2759 87.7054 53.2759 85.7627C53.2759 85.3525 52.5909 85.0169 51.7537 85.0169C50.9165 85.0169 50.2315 84.6814 50.2315 84.2712C50.2315 83.861 49.6219 83.5254 48.8776 83.5254C48.1325 83.5254 47.0296 82.8542 46.4261 82.0339C45.8226 81.2136 44.875 80.5424 44.321 80.5424C42.932 80.5424 39.5764 77.138 39.5764 75.7285C39.5764 75.0946 39.2339 74.5763 38.8153 74.5763C38.3967 74.5763 38.0542 73.2339 38.0542 71.5932C38.0542 69.9525 37.7117 68.6102 37.2931 68.6102C36.8745 68.6102 36.532 67.939 36.532 67.1186C36.532 66.2983 36.1895 65.6271 35.7709 65.6271C35.3523 65.6271 35.0099 65.0999 35.0099 64.4555C35.0099 62.9483 33.1772 61.1525 31.639 61.1525C30.9814 61.1525 30.4433 60.8169 30.4433 60.4068C30.4433 59.9966 29.1023 59.661 27.4622 59.661C25.822 59.661 24.2816 59.2419 24.0373 58.7288C23.6826 57.9831 23.5046 57.9831 23.1499 58.7288C22.9056 59.2419 21.3651 59.661 19.725 59.661C18.0849 59.661 16.7438 59.9966 16.7438 60.4068C16.7438 60.8169 16.2149 61.1525 15.568 61.1525C14.045 61.1525 10.6552 64.4742 10.6552 65.9664C10.6552 66.6003 10.3127 67.1186 9.89409 67.1186C9.47549 67.1186 9.133 67.7898 9.133 68.6102C9.133 69.4305 8.79052 70.1017 8.37192 70.1017C7.94876 70.1017 7.61084 72.0906 7.61084 74.5763C7.61084 77.0619 7.94876 79.0508 8.37192 79.0508C8.79052 79.0508 9.133 79.722 9.133 80.5424C9.133 81.3627 9.47549 82.0339 9.89409 82.0339C10.3127 82.0339 10.6552 82.5612 10.6552 83.2055C10.6552 84.7127 12.4879 86.5085 14.026 86.5085C14.6836 86.5085 15.2217 86.8441 15.2217 87.2542C15.2217 87.6965 18.0126 88 22.0714 88C26.1303 88 28.9212 88.3035 28.9212 88.7458C28.9212 89.1559 29.6062 89.4915 30.4433 89.4915C31.2805 89.4915 31.9655 89.8271 31.9655 90.2373C31.9655 90.6475 32.5036 90.9831 33.1612 90.9831C34.5524 90.9831 36.532 92.7319 36.532 93.9609C36.532 94.427 38.281 96.4778 40.4189 98.519L44.3065 102.228L42.7021 103.592C41.82 104.341 41.0985 105.502 41.0985 106.172C41.0985 106.842 40.756 107.39 40.3374 107.39C39.9188 107.39 39.5764 108.061 39.5764 108.881C39.5764 109.702 39.2339 110.373 38.8153 110.373C38.3967 110.373 38.0542 111.044 38.0542 111.864C38.0542 112.685 37.7117 113.356 37.2931 113.356C36.8745 113.356 36.532 114.363 36.532 115.593C36.532 116.824 36.1895 117.831 35.7709 117.831C35.3523 117.831 35.0099 118.837 35.0099 120.068C35.0099 121.298 34.6674 122.305 34.2488 122.305C33.8302 122.305 33.4877 123.312 33.4877 124.542C33.4877 125.773 33.1452 126.78 32.7266 126.78C32.308 126.78 31.9655 128.122 31.9655 129.763C31.9655 131.403 31.623 132.746 31.2044 132.746C30.7813 132.746 30.4433 134.735 30.4433 137.22C30.4433 139.706 30.1054 141.695 29.6823 141.695C29.2028 141.695 28.9212 146.667 28.9212 155.119C28.9212 163.57 29.2028 168.542 29.6823 168.542C30.1054 168.542 30.4433 170.531 30.4433 173.017C30.4433 175.503 30.7813 177.492 31.2044 177.492C31.623 177.492 31.9655 178.834 31.9655 180.475C31.9655 182.115 32.308 183.458 32.7266 183.458C33.1452 183.458 33.4877 184.464 33.4877 185.695C33.4877 186.925 33.8302 187.932 34.2488 187.932C34.6674 187.932 35.0099 188.939 35.0099 190.169C35.0099 191.4 35.3523 192.407 35.7709 192.407C36.1895 192.407 36.532 193.078 36.532 193.898C36.532 194.719 36.8745 195.39 37.2931 195.39C37.7117 195.39 38.0542 196.061 38.0542 196.881C38.0542 197.702 38.3967 198.373 38.8153 198.373C39.2339 198.373 39.5764 199.044 39.5764 199.864C39.5764 200.685 39.9188 201.356 40.3374 201.356C40.756 201.356 41.0985 202.027 41.0985 202.847C41.0985 203.668 41.441 204.339 41.8596 204.339C42.2782 204.339 42.6207 205.01 42.6207 205.831C42.6207 206.651 42.9632 207.322 43.3818 207.322C43.8004 207.322 44.1429 207.83 44.1429 208.45C44.1429 209.922 30.0522 223.729 28.5505 223.729C27.9173 223.729 27.399 224.064 27.399 224.475C27.399 224.885 26.4005 225.22 25.1789 225.22C23.9581 225.22 22.7594 225.639 22.5151 226.153C22.1605 226.898 21.9824 226.898 21.6277 226.153C21.0896 225.023 12.1773 224.848 12.1773 225.966C12.1773 226.376 11.312 226.712 10.2548 226.712C8.10478 226.712 1.52217 232.6 1.52217 234.523C1.52217 235.149 1.17968 235.661 0.761084 235.661C0.305956 235.661 0 238.589 0 242.954C0 249.391 0.178855 250.373 1.52217 251.322C2.35936 251.913 3.04433 252.85 3.04433 253.404C3.04433 254.77 4.94781 256.542 6.41518 256.542C7.07275 256.542 7.61084 256.878 7.61084 257.288C7.61084 257.698 8.29581 258.034 9.133 258.034C9.9702 258.034 10.6552 258.369 10.6552 258.78C10.6552 259.214 13.1919 259.525 16.7438 259.525C20.2958 259.525 22.8325 259.214 22.8325 258.78C22.8325 258.369 23.3554 258.034 23.9939 258.034C25.5047 258.034 31.9655 251.703 31.9655 250.223C31.9655 249.597 32.308 249.085 32.7266 249.085C33.1452 249.085 33.4877 247.742 33.4877 246.102C33.4877 244.461 33.8302 243.119 34.2488 243.119C34.6674 243.119 35.0099 242.447 35.0099 241.627C35.0099 240.807 35.3523 240.136 35.7709 240.136C36.1895 240.136 36.532 239.608 36.532 238.964C36.532 237.526 38.3411 235.661 39.7347 235.661C40.3001 235.661 41.2561 234.99 41.8596 234.169C42.4631 233.349 43.566 232.678 44.3111 232.678C45.0554 232.678 45.665 232.342 45.665 231.932C45.665 231.522 46.35 231.186 47.1872 231.186C48.0244 231.186 48.7094 230.851 48.7094 230.441C48.7094 230.031 49.3943 229.695 50.2315 229.695C51.0687 229.695 51.7537 229.359 51.7537 228.949C51.7537 228.539 52.4387 228.203 53.2759 228.203C54.1131 228.203 54.798 227.868 54.798 227.458C54.798 226.079 58.9954 226.666 60.1256 228.203C60.7292 229.024 61.6874 229.695 62.2559 229.695C62.8244 229.695 64.6054 231.037 66.2143 232.678C67.8232 234.319 69.6041 235.661 70.1727 235.661C70.7412 235.661 71.6994 236.332 72.303 237.153C72.9065 237.973 73.934 238.644 74.5862 238.644C75.2385 238.644 76.2659 239.315 76.8695 240.136C77.473 240.956 78.5758 241.627 79.3209 241.627C80.0653 241.627 80.6749 241.963 80.6749 242.373C80.6749 242.783 81.3598 243.119 82.197 243.119C83.0342 243.119 83.7192 243.454 83.7192 243.864C83.7192 244.275 84.4042 244.61 85.2414 244.61C86.0786 244.61 86.7635 244.946 86.7635 245.356C86.7635 245.766 87.4485 246.102 88.2857 246.102C89.1229 246.102 89.8079 246.437 89.8079 246.847C89.8079 247.258 90.4929 247.593 91.33 247.593C92.1672 247.593 92.8522 247.929 92.8522 248.339C92.8522 248.749 93.8797 249.085 95.1355 249.085C96.3913 249.085 97.4187 249.42 97.4187 249.831C97.4187 250.241 98.4462 250.576 99.702 250.576C100.958 250.576 101.985 250.912 101.985 251.322C101.985 251.732 103.013 252.068 104.268 252.068C105.524 252.068 106.552 252.403 106.552 252.814C106.552 253.224 108.264 253.559 110.357 253.559C112.45 253.559 114.163 253.895 114.163 254.305C114.163 254.781 120.505 255.051 131.667 255.051C142.83 255.051 149.172 254.781 149.172 254.305C149.172 253.895 149.857 253.559 150.695 253.559C151.709 253.559 152.217 254.057 152.217 255.051C152.217 255.871 152.559 256.542 152.978 256.542C153.396 256.542 153.739 257.214 153.739 258.034C153.739 258.854 154.081 259.525 154.5 259.525C154.919 259.525 155.261 260.197 155.261 261.017C155.261 261.837 155.604 262.508 156.022 262.508C156.441 262.508 156.783 263.18 156.783 264C156.783 264.82 157.126 265.492 157.544 265.492C157.967 265.492 158.305 267.48 158.305 269.966C158.305 272.452 157.967 274.441 157.544 274.441C157.126 274.441 156.783 275.112 156.783 275.932C156.783 276.753 156.441 277.424 156.022 277.424C155.604 277.424 155.261 278.431 155.261 279.661C155.261 280.892 154.919 281.898 154.5 281.898C154.081 281.898 153.739 282.569 153.739 283.39C153.739 284.21 154.081 284.881 154.5 284.881C154.919 284.881 155.261 286.065 155.261 287.511C155.261 289.631 155.921 290.788 158.666 293.477C160.901 295.667 162.731 296.814 163.994 296.814C165.051 296.814 165.916 297.149 165.916 297.559C165.916 297.969 167.286 298.305 168.961 298.305C170.635 298.305 172.005 297.969 172.005 297.559C172.005 297.149 173.032 296.814 174.288 296.814C175.544 296.814 176.571 296.478 176.571 296.068C176.571 295.658 177.097 295.322 177.738 295.322C179.656 295.322 184.182 290.363 184.182 288.262C184.182 287.223 184.525 286.373 184.943 286.373C185.362 286.373 185.704 284.695 185.704 282.644C185.704 280.593 185.362 278.915 184.943 278.915C184.525 278.915 184.182 278.244 184.182 277.424C184.182 276.603 183.84 275.932 183.421 275.932C183.003 275.932 182.66 275.405 182.66 274.761C182.66 273.412 180.88 271.458 179.65 271.458C177.939 271.458 172.005 264.816 172.005 262.901C172.005 261.865 171.662 261.017 171.244 261.017C170.793 261.017 170.483 258.282 170.483 254.305C170.483 248.091 170.595 247.593 172.005 247.593C172.842 247.593 173.527 247.258 173.527 246.847C173.527 246.437 174.555 246.102 175.81 246.102C177.066 246.102 178.094 245.766 178.094 245.356C178.094 244.946 178.703 244.61 179.448 244.61C180.193 244.61 181.295 243.939 181.899 243.119C182.503 242.298 183.605 241.627 184.35 241.627C185.095 241.627 185.704 241.292 185.704 240.881C185.704 240.471 186.314 240.136 187.058 240.136C187.803 240.136 188.906 239.464 189.51 238.644C190.113 237.824 191.072 237.153 191.64 237.153C192.209 237.153 193.99 235.81 195.599 234.169C197.207 232.529 198.899 231.186 199.358 231.186C200.457 231.186 210.059 221.763 210.059 220.686C210.059 220.227 211.087 218.912 212.342 217.763C213.598 216.613 214.626 215.271 214.626 214.78C214.626 214.288 215.653 212.946 216.909 211.797C218.165 210.647 219.192 209.17 219.192 208.515C219.192 207.858 219.717 207.322 220.359 207.322C221.874 207.322 226.803 212.152 226.803 213.636C226.803 214.265 227.145 214.78 227.564 214.78C227.983 214.78 228.325 215.451 228.325 216.271C228.325 217.092 228.668 217.763 229.086 217.763C229.505 217.763 229.847 218.277 229.847 218.906C229.847 220.391 234.776 225.22 236.291 225.22C236.933 225.22 237.458 225.556 237.458 225.966C237.458 226.376 238.143 226.712 238.98 226.712C239.817 226.712 240.502 227.047 240.502 227.458C240.502 227.872 242.532 228.203 245.069 228.203C247.606 228.203 249.635 227.872 249.635 227.458C249.635 227.047 250.32 226.712 251.158 226.712C251.995 226.712 252.68 226.376 252.68 225.966C252.68 225.556 253.205 225.22 253.847 225.22C255.362 225.22 260.291 220.391 260.291 218.906C260.291 218.277 260.633 217.763 261.052 217.763C261.503 217.763 261.813 215.028 261.813 211.051C261.813 207.074 261.503 204.339 261.052 204.339C260.633 204.339 260.291 203.827 260.291 203.201C260.291 201.721 253.83 195.39 252.319 195.39C251.68 195.39 251.158 195.054 251.158 194.644C251.158 194.209 248.621 193.898 245.069 193.898C241.517 193.898 238.98 194.209 238.98 194.644C238.98 195.059 236.95 195.39 234.414 195.39C231.877 195.39 229.847 195.059 229.847 194.644C229.847 194.234 229.162 193.898 228.325 193.898C227.488 193.898 226.803 193.563 226.803 193.153C226.803 192.742 227.145 192.407 227.564 192.407C227.983 192.407 228.325 191.4 228.325 190.169C228.325 188.939 228.668 187.932 229.086 187.932C229.505 187.932 229.847 186.925 229.847 185.695C229.847 184.464 230.19 183.458 230.608 183.458C231.027 183.458 231.369 182.115 231.369 180.475C231.369 178.834 231.712 177.492 232.131 177.492C232.549 177.492 232.892 175.814 232.892 173.763C232.892 171.712 233.234 170.034 233.653 170.034C234.134 170.034 234.414 164.565 234.414 155.119C234.414 145.672 234.134 140.203 233.653 140.203C233.23 140.203 232.892 138.214 232.892 135.729C232.892 133.243 232.554 131.254 232.131 131.254C231.712 131.254 231.369 129.912 231.369 128.271C231.369 126.631 231.027 125.288 230.608 125.288C230.19 125.288 229.847 124.281 229.847 123.051C229.847 121.82 229.505 120.814 229.086 120.814C228.668 120.814 228.325 120.142 228.325 119.322C228.325 118.502 227.983 117.831 227.564 117.831C227.145 117.831 226.803 116.824 226.803 115.593C226.803 114.363 226.46 113.356 226.042 113.356C225.623 113.356 225.281 112.685 225.281 111.864C225.281 111.044 224.938 110.373 224.52 110.373C224.101 110.373 223.759 109.702 223.759 108.881C223.759 108.061 223.416 107.39 222.998 107.39C222.579 107.39 222.236 106.792 222.236 106.063C222.236 105.333 221.551 104.252 220.714 103.661C219.877 103.07 219.192 101.989 219.192 101.259C219.192 100.53 218.85 99.9322 218.431 99.9322C218.012 99.9322 217.67 99.396 217.67 98.7397C217.67 98.0842 216.606 96.574 215.306 95.3838L212.942 93.2203L215.306 91.0569C216.606 89.8666 217.67 88.5153 217.67 88.0537C217.67 86.7949 224.305 80.5424 225.642 80.5424C226.28 80.5424 226.803 80.2068 226.803 79.7966C226.803 79.3708 229.086 79.0508 232.131 79.0508C235.175 79.0508 237.458 78.7309 237.458 78.3051C237.458 77.8949 238.143 77.5593 238.98 77.5593C239.817 77.5593 240.502 77.2237 240.502 76.8136C240.502 76.4034 241.041 76.0678 241.698 76.0678C243.236 76.0678 245.069 74.272 245.069 72.7648C245.069 72.1205 245.411 71.5932 245.83 71.5932C246.281 71.5932 246.591 68.8585 246.591 64.8814C246.591 60.9042 246.281 58.1695 245.83 58.1695C245.411 58.1695 245.069 57.6549 245.069 57.0262C245.069 55.5414 240.14 50.7119 238.625 50.7119C237.983 50.7119 237.458 50.3763 237.458 49.9661C237.458 49.5328 234.977 49.2203 231.538 49.2203C226.49 49.2203 225.455 49.4403 224.52 50.7119C223.916 51.5322 222.96 52.2034 222.395 52.2034C221.001 52.2034 219.192 54.0685 219.192 55.5064C219.192 56.1507 218.85 56.678 218.431 56.678C218.012 56.678 217.67 58.3559 217.67 60.4068C217.67 62.4576 217.327 64.1356 216.909 64.1356C216.49 64.1356 216.148 64.9835 216.148 66.0194C216.148 68.1262 210.139 74.5763 208.176 74.5763C207.538 74.5763 207.015 74.9119 207.015 75.322C207.015 75.7322 206.405 76.0678 205.661 76.0678C204.916 76.0678 203.813 76.739 203.209 77.5593C201.697 79.6154 200.377 79.4312 197.882 76.8136C196.709 75.5831 195.277 74.5763 194.7 74.5763C194.124 74.5763 193.158 73.9051 192.554 73.0847C191.951 72.2644 190.923 71.5932 190.271 71.5932C189.619 71.5932 188.591 70.922 187.988 70.1017C187.384 69.2814 186.357 68.6102 185.704 68.6102C185.052 68.6102 184.025 67.939 183.421 67.1186C182.818 66.2983 181.715 65.6271 180.97 65.6271C180.225 65.6271 179.616 65.2915 179.616 64.8814C179.616 64.4712 178.931 64.1356 178.094 64.1356C177.256 64.1356 176.571 63.8 176.571 63.3898C176.571 62.9797 175.544 62.6441 174.288 62.6441C173.032 62.6441 172.005 62.3085 172.005 61.8983C172.005 61.4881 171.32 61.1525 170.483 61.1525C169.646 61.1525 168.961 60.8169 168.961 60.4068C168.961 59.9966 167.933 59.661 166.677 59.661C165.422 59.661 164.394 59.3254 164.394 58.9153C164.394 58.5051 163.367 58.1695 162.111 58.1695C160.855 58.1695 159.828 57.8339 159.828 57.4237C159.828 57.0136 158.458 56.678 156.783 56.678C155.109 56.678 153.739 56.3424 153.739 55.9322C153.739 55.5064 151.456 55.1864 148.411 55.1864C145.367 55.1864 143.084 54.8665 143.084 54.4407C143.084 54.0305 142.399 53.6949 141.562 53.6949C140.293 53.6949 140.039 53.1975 140.039 50.7119C140.039 49.0712 140.382 47.7288 140.8 47.7288C141.219 47.7288 141.562 47.1926 141.562 46.5363C141.562 45.8808 142.589 44.4035 143.845 43.2542C145.101 42.105 146.128 40.6277 146.128 39.9721C146.128 39.3159 146.471 38.7797 146.889 38.7797C147.308 38.7797 147.65 38.1085 147.65 37.2881C147.65 36.4678 147.993 35.7966 148.411 35.7966C148.846 35.7966 149.172 33.5593 149.172 30.5763C149.172 27.5932 148.846 25.3559 148.411 25.3559C147.993 25.3559 147.65 24.6847 147.65 23.8644C147.65 23.0441 147.308 22.3729 146.889 22.3729C146.471 22.3729 146.128 21.8583 146.128 21.2296C146.128 19.7448 141.199 14.9153 139.684 14.9153C139.042 14.9153 138.517 14.5797 138.517 14.1695C138.517 13.7347 135.981 13.4237 132.429 13.4237C128.877 13.4237 126.34 13.7347 126.34 14.1695ZM135.473 18.6441C135.473 19.0542 135.998 19.3898 136.64 19.3898C138.558 19.3898 143.084 24.3492 143.084 26.45C143.084 27.4888 143.426 28.339 143.845 28.339C144.263 28.339 144.606 29.3458 144.606 30.5763C144.606 31.8068 144.263 32.8136 143.845 32.8136C143.426 32.8136 143.084 33.6854 143.084 34.7518C143.084 35.9435 142.205 37.4947 140.8 38.7797C139.545 39.9289 138.517 41.3324 138.517 41.8969C138.517 42.4622 137.832 43.4086 136.995 44C135.6 44.9859 135.473 45.9308 135.473 55.3513C135.473 61.7044 135.764 65.6271 136.234 65.6271C136.657 65.6271 136.995 67.6161 136.995 70.1017C136.995 72.5873 137.333 74.5763 137.756 74.5763C138.191 74.5763 138.517 76.8136 138.517 79.7966C138.517 82.7797 138.844 85.0169 139.278 85.0169C139.701 85.0169 140.039 87.0059 140.039 89.4915C140.039 91.9772 140.377 93.9661 140.8 93.9661C141.219 93.9661 141.562 94.9729 141.562 96.2034C141.562 98.1923 141.815 98.4407 143.845 98.4407C146.001 98.4407 146.128 98.2751 146.128 95.4576C146.128 93.8169 145.786 92.4746 145.367 92.4746C144.932 92.4746 144.606 90.2373 144.606 87.2542C144.606 84.2712 144.279 82.0339 143.845 82.0339C143.422 82.0339 143.084 80.0449 143.084 77.5593C143.084 75.0737 142.746 73.0847 142.323 73.0847C141.888 73.0847 141.562 70.8475 141.562 67.8644C141.562 64.8814 141.235 62.6441 140.8 62.6441C140.382 62.6441 140.039 61.9729 140.039 61.1525C140.039 59.8027 140.547 59.661 145.367 59.661C148.411 59.661 150.695 59.9809 150.695 60.4068C150.695 60.8169 152.065 61.1525 153.739 61.1525C155.413 61.1525 156.783 61.4881 156.783 61.8983C156.783 62.3085 158.153 62.6441 159.828 62.6441C161.502 62.6441 162.872 62.9797 162.872 63.3898C162.872 63.8 163.557 64.1356 164.394 64.1356C165.231 64.1356 165.916 64.4712 165.916 64.8814C165.916 65.2915 166.944 65.6271 168.2 65.6271C169.455 65.6271 170.483 65.9627 170.483 66.3729C170.483 66.7831 171.168 67.1186 172.005 67.1186C172.842 67.1186 173.527 67.4542 173.527 67.8644C173.527 68.2746 174.212 68.6102 175.049 68.6102C175.886 68.6102 176.571 68.9458 176.571 69.3559C176.571 69.7661 177.256 70.1017 178.094 70.1017C178.931 70.1017 179.616 70.4373 179.616 70.8475C179.616 71.2576 180.225 71.5932 180.97 71.5932C181.715 71.5932 182.818 72.2644 183.421 73.0847C184.025 73.9051 185.052 74.5763 185.704 74.5763C186.357 74.5763 187.384 75.2475 187.988 76.0678C188.591 76.8881 189.545 77.5593 190.108 77.5593C190.671 77.5593 192.798 79.2373 194.837 81.2881C198.879 85.354 201.374 86.0207 203.209 83.5254C203.813 82.7051 204.916 82.0339 205.661 82.0339C206.405 82.0339 207.015 81.6983 207.015 81.2881C207.015 80.878 207.624 80.5424 208.369 80.5424C209.114 80.5424 210.217 79.8712 210.82 79.0508C211.424 78.2305 212.364 77.5593 212.911 77.5593C214.744 77.5593 220.714 71.0123 220.714 69.0024C220.714 67.9666 221.057 67.1186 221.475 67.1186C221.894 67.1186 222.236 65.4407 222.236 63.3898C222.236 61.339 222.579 59.661 222.998 59.661C223.416 59.661 223.759 59.1338 223.759 58.4894C223.759 56.9822 225.591 55.1864 227.129 55.1864C227.787 55.1864 228.325 54.8508 228.325 54.4407C228.325 54.0305 229.695 53.6949 231.369 53.6949C233.044 53.6949 234.414 54.0305 234.414 54.4407C234.414 54.8508 234.939 55.1864 235.581 55.1864C236.223 55.1864 237.935 56.3498 239.386 57.772C241.818 60.1547 242.025 60.7118 242.025 64.8903C242.025 68.7094 241.73 69.7124 240.156 71.2539C239.129 72.2607 237.759 73.0847 237.112 73.0847C236.465 73.0847 235.936 73.4203 235.936 73.8305C235.936 74.2653 233.399 74.5763 229.847 74.5763C226.295 74.5763 223.759 74.8873 223.759 75.322C223.759 75.7322 223.236 76.0678 222.597 76.0678C221.27 76.0678 214.626 82.3165 214.626 83.5642C214.626 84.0176 213.256 85.6777 211.581 87.2542C209.142 89.5512 208.537 90.6504 208.537 92.7893C208.537 94.2569 208.879 95.4576 209.298 95.4576C209.717 95.4576 210.059 96.055 210.059 96.7843C210.059 97.5144 210.744 98.5951 211.581 99.1864C212.418 99.7778 213.103 100.785 213.103 101.424C213.103 102.063 213.788 103.07 214.626 103.661C215.463 104.252 216.148 105.333 216.148 106.063C216.148 106.792 216.49 107.39 216.909 107.39C217.327 107.39 217.67 107.987 217.67 108.717C217.67 109.447 218.355 110.527 219.192 111.119C220.086 111.75 220.714 113.049 220.714 114.267C220.714 115.406 221.057 116.339 221.475 116.339C221.894 116.339 222.236 117.01 222.236 117.831C222.236 118.651 222.579 119.322 222.998 119.322C223.416 119.322 223.759 120.329 223.759 121.559C223.759 122.79 224.101 123.797 224.52 123.797C224.938 123.797 225.281 124.803 225.281 126.034C225.281 127.264 225.623 128.271 226.042 128.271C226.46 128.271 226.803 129.614 226.803 131.254C226.803 132.895 227.145 134.237 227.564 134.237C227.983 134.237 228.325 135.915 228.325 137.966C228.325 140.017 228.668 141.695 229.086 141.695C229.563 141.695 229.847 146.418 229.847 154.373C229.847 162.328 229.563 167.051 229.086 167.051C228.663 167.051 228.325 169.04 228.325 171.525C228.325 174.011 227.987 176 227.564 176C227.145 176 226.803 177.342 226.803 178.983C226.803 180.624 226.46 181.966 226.042 181.966C225.623 181.966 225.281 182.973 225.281 184.203C225.281 185.434 224.938 186.441 224.52 186.441C224.101 186.441 223.759 187.112 223.759 187.932C223.759 188.926 223.251 189.424 222.236 189.424C221.399 189.424 220.714 189.088 220.714 188.678C220.714 188.268 220.167 187.932 219.497 187.932C218.828 187.932 217.321 186.925 216.148 185.695C214.975 184.464 213.543 183.458 212.966 183.458C212.39 183.458 211.424 182.786 210.82 181.966C210.217 181.146 209.251 180.475 208.674 180.475C208.098 180.475 206.665 179.468 205.493 178.237C204.32 177.007 202.887 176 202.311 176C201.734 176 200.769 175.329 200.165 174.508C199.561 173.688 198.596 173.017 198.019 173.017C197.443 173.017 196.01 172.01 194.837 170.78C193.232 169.096 192.028 168.542 189.966 168.542C188.012 168.542 187.227 168.871 187.227 169.686C187.227 171.006 192.082 176 193.365 176C193.839 176 195.187 177.007 196.36 178.237C197.532 179.468 198.965 180.475 199.541 180.475C200.118 180.475 201.084 181.146 201.687 181.966C202.291 182.786 203.257 183.458 203.833 183.458C204.41 183.458 205.842 184.464 207.015 185.695C208.188 186.925 209.62 187.932 210.196 187.932C210.773 187.932 211.739 188.603 212.342 189.424C212.946 190.244 213.912 190.915 214.489 190.915C215.065 190.915 216.497 191.922 217.67 193.153C218.843 194.383 220.275 195.39 220.851 195.39C221.428 195.39 222.394 196.061 222.998 196.881C223.642 197.757 224.968 198.373 226.21 198.373C227.373 198.373 228.325 198.708 228.325 199.119C228.325 199.553 230.862 199.864 234.414 199.864C237.966 199.864 240.502 199.553 240.502 199.119C240.502 198.708 242.215 198.373 244.308 198.373C246.401 198.373 248.113 198.708 248.113 199.119C248.113 199.529 248.636 199.864 249.275 199.864C249.914 199.864 251.969 201.366 253.841 203.201C257.124 206.417 257.246 206.699 257.246 211.051C257.246 215.402 257.124 215.685 253.841 218.901C251.606 221.091 249.776 222.237 248.514 222.237C247.456 222.237 246.591 222.573 246.591 222.983C246.591 223.393 245.906 223.729 245.069 223.729C244.232 223.729 243.547 223.393 243.547 222.983C243.547 222.573 242.681 222.237 241.624 222.237C239.12 222.237 232.892 216.252 232.892 213.845C232.892 212.9 232.207 211.642 231.369 211.051C230.532 210.459 229.847 209.531 229.847 208.988C229.847 207.627 226.373 204.339 224.934 204.339C224.288 204.339 223.759 204.003 223.759 203.593C223.759 203.183 223.074 202.847 222.236 202.847C221.399 202.847 220.714 202.512 220.714 202.102C220.714 201.692 219.687 201.356 218.431 201.356C217.175 201.356 216.148 201.02 216.148 200.61C216.148 200.2 215.12 199.864 213.865 199.864C212.609 199.864 211.581 199.529 211.581 199.119C211.581 198.708 210.554 198.373 209.298 198.373C208.042 198.373 207.015 198.037 207.015 197.627C207.015 197.217 205.987 196.881 204.732 196.881C203.476 196.881 202.448 196.546 202.448 196.136C202.448 195.725 201.421 195.39 200.165 195.39C198.909 195.39 197.882 195.054 197.882 194.644C197.882 194.234 196.854 193.898 195.599 193.898C194.343 193.898 193.315 193.563 193.315 193.153C193.315 192.742 192.288 192.407 191.032 192.407C189.776 192.407 188.749 192.071 188.749 191.661C188.749 191.251 187.721 190.915 186.466 190.915C185.21 190.915 184.182 190.58 184.182 190.169C184.182 189.759 182.47 189.424 180.377 189.424C177.425 189.424 176.571 189.686 176.571 190.595C176.571 192.103 178.404 193.898 179.942 193.898C180.6 193.898 181.138 194.234 181.138 194.644C181.138 195.054 182.165 195.39 183.421 195.39C184.677 195.39 185.704 195.725 185.704 196.136C185.704 196.546 186.732 196.881 187.988 196.881C189.243 196.881 190.271 197.217 190.271 197.627C190.271 198.037 191.298 198.373 192.554 198.373C193.81 198.373 194.837 198.708 194.837 199.119C194.837 199.529 196.207 199.864 197.882 199.864C199.556 199.864 200.926 200.2 200.926 200.61C200.926 201.02 201.954 201.356 203.209 201.356C204.465 201.356 205.493 201.692 205.493 202.102C205.493 202.512 206.52 202.847 207.776 202.847C209.032 202.847 210.059 203.183 210.059 203.593C210.059 204.003 211.087 204.339 212.342 204.339C215.073 204.339 215.49 206.382 213.103 208.068C212.266 208.659 211.581 209.606 211.581 210.171C211.581 210.735 210.554 212.139 209.298 213.288C208.042 214.437 207.015 215.752 207.015 216.209C207.015 217.294 195.882 228.203 194.774 228.203C194.308 228.203 192.966 229.21 191.793 230.441C190.62 231.671 189.188 232.678 188.612 232.678C188.035 232.678 187.069 233.349 186.466 234.169C185.862 234.99 184.835 235.661 184.182 235.661C183.53 235.661 182.503 236.332 181.899 237.153C181.295 237.973 180.193 238.644 179.448 238.644C178.703 238.644 178.094 238.98 178.094 239.39C178.094 239.8 177.409 240.136 176.571 240.136C175.734 240.136 175.049 240.471 175.049 240.881C175.049 241.292 174.364 241.627 173.527 241.627C172.69 241.627 172.005 241.963 172.005 242.373C172.005 242.783 171.32 243.119 170.483 243.119C169.646 243.119 168.961 243.454 168.961 243.864C168.961 244.275 168.422 244.61 167.765 244.61C167.107 244.61 166.079 245.09 165.482 245.676C164.234 246.897 164.025 249.085 165.155 249.085C165.612 249.085 165.916 252.068 165.916 256.542C165.916 261.017 166.221 264 166.677 264C167.096 264 167.438 264.848 167.438 265.884C167.438 267.787 173.368 274.441 175.064 274.441C176.613 274.441 179.616 278.108 179.616 280C179.616 281.044 179.958 281.898 180.377 281.898C180.795 281.898 181.138 282.569 181.138 283.39C181.138 284.21 180.795 284.881 180.377 284.881C179.958 284.881 179.616 285.396 179.616 286.025C179.616 287.866 174.556 292.339 172.475 292.339C171.449 292.339 170.41 292.758 170.165 293.271C169.811 294.017 169.633 294.017 169.278 293.271C169.034 292.758 167.995 292.339 166.969 292.339C165.856 292.339 164.041 291.296 162.466 289.753C160.091 287.427 159.828 286.756 159.828 283.042C159.828 280.772 160.17 278.915 160.589 278.915C161.007 278.915 161.35 278.244 161.35 277.424C161.35 276.603 161.692 275.932 162.111 275.932C162.555 275.932 162.872 273.447 162.872 269.966C162.872 266.486 162.555 264 162.111 264C161.692 264 161.35 263.329 161.35 262.508C161.35 261.688 161.007 261.017 160.589 261.017C160.17 261.017 159.828 260.346 159.828 259.525C159.828 258.705 159.485 258.034 159.066 258.034C158.648 258.034 158.305 257.363 158.305 256.542C158.305 255.722 157.963 255.051 157.544 255.051C157.126 255.051 156.783 254.188 156.783 253.133C156.783 250.138 155.113 249.085 150.368 249.085C148.036 249.085 146.128 249.42 146.128 249.831C146.128 250.302 140.8 250.576 131.667 250.576C122.534 250.576 117.207 250.302 117.207 249.831C117.207 249.42 115.494 249.085 113.401 249.085C111.308 249.085 109.596 248.749 109.596 248.339C109.596 247.929 108.226 247.593 106.552 247.593C104.877 247.593 103.507 247.258 103.507 246.847C103.507 246.437 102.48 246.102 101.224 246.102C99.9683 246.102 98.9409 245.766 98.9409 245.356C98.9409 244.946 97.9134 244.61 96.6576 244.61C95.4018 244.61 94.3744 244.275 94.3744 243.864C94.3744 243.454 93.6894 243.119 92.8522 243.119C92.015 243.119 91.33 242.783 91.33 242.373C91.33 241.963 90.6451 241.627 89.8079 241.627C88.9707 241.627 88.2857 241.292 88.2857 240.881C88.2857 240.471 87.6007 240.136 86.7635 240.136C85.9264 240.136 85.2414 239.8 85.2414 239.39C85.2414 238.98 84.6318 238.644 83.8874 238.644C83.1423 238.644 82.0395 237.973 81.436 237.153C80.8324 236.332 79.805 235.661 79.1527 235.661C78.5005 235.661 77.473 234.99 76.8695 234.169C76.2659 233.349 75.3077 232.678 74.7392 232.678C74.1706 232.678 72.3897 231.336 70.7808 229.695C69.1719 228.054 67.4617 226.712 66.9807 226.712C65.7173 226.712 63.931 224.777 63.931 223.409C63.931 222.735 64.5764 222.237 65.4532 222.237C66.2904 222.237 66.9754 221.902 66.9754 221.492C66.9754 221.081 67.6603 220.746 68.4975 220.746C69.3347 220.746 70.0197 220.41 70.0197 220C70.0197 219.59 70.6293 219.254 71.3737 219.254C72.1188 219.254 73.2216 218.583 73.8251 217.763C74.4287 216.942 75.3846 216.271 75.9501 216.271C77.3436 216.271 79.1527 214.406 79.1527 212.968C79.1527 212.099 78.3688 211.797 76.1084 211.797C74.434 211.797 73.064 212.132 73.064 212.542C73.064 212.953 72.3791 213.288 71.5419 213.288C70.7047 213.288 70.0197 213.624 70.0197 214.034C70.0197 214.444 69.3347 214.78 68.4975 214.78C67.6603 214.78 66.9754 215.115 66.9754 215.525C66.9754 215.936 66.2904 216.271 65.4532 216.271C64.616 216.271 63.931 216.607 63.931 217.017C63.931 217.427 63.2461 217.763 62.4089 217.763C61.5717 217.763 60.8867 218.098 60.8867 218.508C60.8867 218.919 60.2017 219.254 59.3645 219.254C58.5273 219.254 57.8424 219.59 57.8424 220C57.8424 220.41 57.2327 220.746 56.4884 220.746C55.7433 220.746 54.6405 221.417 54.0369 222.237C53.4334 223.058 52.3306 223.729 51.5855 223.729C50.8411 223.729 50.2315 224.064 50.2315 224.475C50.2315 224.885 49.5466 225.22 48.7094 225.22C47.8722 225.22 47.1872 225.556 47.1872 225.966C47.1872 226.376 46.5022 226.712 45.665 226.712C44.8278 226.712 44.1429 227.047 44.1429 227.458C44.1429 227.868 43.4579 228.203 42.6207 228.203C41.7835 228.203 41.0985 228.539 41.0985 228.949C41.0985 229.359 40.4135 229.695 39.5764 229.695C38.7392 229.695 38.0542 230.031 38.0542 230.441C38.0542 230.851 37.5161 231.186 36.8585 231.186C35.3912 231.186 33.4877 232.959 33.4877 234.325C33.4877 234.879 32.8027 235.815 31.9655 236.407C31.1283 236.998 30.4433 238.079 30.4433 238.809C30.4433 239.538 30.1009 240.136 29.6823 240.136C29.2637 240.136 28.9212 241.478 28.9212 243.119C28.9212 244.759 28.5787 246.102 28.1601 246.102C27.7415 246.102 27.399 246.616 27.399 247.245C27.399 248.73 22.4702 253.559 20.9549 253.559C20.3133 253.559 19.7882 253.895 19.7882 254.305C19.7882 254.715 18.4182 255.051 16.7438 255.051C15.0695 255.051 13.6995 254.715 13.6995 254.305C13.6995 253.895 13.0145 253.559 12.1773 253.559C11.3401 253.559 10.6552 253.224 10.6552 252.814C10.6552 252.403 10.1171 252.068 9.45951 252.068C7.92136 252.068 6.08867 250.272 6.08867 248.765C6.08867 248.12 5.74618 247.593 5.32759 247.593C4.89757 247.593 4.5665 245.474 4.5665 242.726C4.5665 237.956 4.63424 237.792 7.97159 234.523C10.2069 232.333 12.0365 231.186 13.2992 231.186C14.3563 231.186 15.2217 230.851 15.2217 230.441C15.2217 230.031 15.9066 229.695 16.7438 229.695C17.581 229.695 18.266 230.031 18.266 230.441C18.266 230.851 19.636 231.186 21.3103 231.186C22.9847 231.186 24.3547 230.851 24.3547 230.441C24.3547 230.031 25.7246 229.695 27.399 229.695C29.0734 229.695 30.4433 229.359 30.4433 228.949C30.4433 228.539 30.9594 228.203 31.5895 228.203C32.2197 228.203 40.0969 220.99 49.0945 212.174C61.6942 199.828 65.4532 195.715 65.4532 194.276C65.4532 192.771 65.0757 192.407 63.5178 192.407C62.1082 192.407 59.9468 194.027 55.5591 198.373C52.2461 201.654 49.1538 204.339 48.6873 204.339C47.4475 204.339 45.665 202.392 45.665 201.036C45.665 200.392 45.3225 199.864 44.9039 199.864C44.4853 199.864 44.1429 199.193 44.1429 198.373C44.1429 197.553 43.8004 196.881 43.3818 196.881C42.9632 196.881 42.6207 196.21 42.6207 195.39C42.6207 194.569 42.2782 193.898 41.8596 193.898C41.441 193.898 41.0985 192.892 41.0985 191.661C41.0985 190.431 40.756 189.424 40.3374 189.424C39.9188 189.424 39.5764 188.417 39.5764 187.186C39.5764 185.956 39.2339 184.949 38.8153 184.949C38.3967 184.949 38.0542 183.942 38.0542 182.712C38.0542 181.481 37.7117 180.475 37.2931 180.475C36.8745 180.475 36.532 179.132 36.532 177.492C36.532 175.851 36.1895 174.508 35.7709 174.508C35.3478 174.508 35.0099 172.52 35.0099 170.034C35.0099 167.548 34.6719 165.559 34.2488 165.559C33.7754 165.559 33.4877 161.333 33.4877 154.373C33.4877 147.413 33.7754 143.186 34.2488 143.186C34.6719 143.186 35.0099 141.197 35.0099 138.712C35.0099 136.226 35.3478 134.237 35.7709 134.237C36.1895 134.237 36.532 132.895 36.532 131.254C36.532 129.614 36.8745 128.271 37.2931 128.271C37.7117 128.271 38.0542 127.264 38.0542 126.034C38.0542 124.803 38.3967 123.797 38.8153 123.797C39.2339 123.797 39.5764 122.79 39.5764 121.559C39.5764 120.329 39.9188 119.322 40.3374 119.322C40.756 119.322 41.0985 118.651 41.0985 117.831C41.0985 117.01 41.441 116.339 41.8596 116.339C42.2782 116.339 42.6207 115.668 42.6207 114.847C42.6207 114.027 42.9632 113.356 43.3818 113.356C43.8004 113.356 44.1429 112.685 44.1429 111.864C44.1429 111.044 44.4853 110.373 44.9039 110.373C45.3225 110.373 45.665 109.702 45.665 108.881C45.665 108.061 46.0075 107.39 46.4261 107.39C46.8447 107.39 47.1872 106.719 47.1872 105.898C47.1872 105.078 47.5297 104.407 47.9483 104.407C48.3669 104.407 48.7094 103.214 48.7094 101.756C48.7094 99.4997 48.0274 98.4481 44.1429 94.7119C41.6313 92.2963 39.5764 89.942 39.5764 89.4796C39.5764 88.2565 37.5937 86.5085 36.2055 86.5085C35.5479 86.5085 35.0099 86.1729 35.0099 85.7627C35.0099 85.3525 34.3249 85.0169 33.4877 85.0169C32.6505 85.0169 31.9655 84.6814 31.9655 84.2712C31.9655 83.8289 29.1746 83.5254 25.1158 83.5254C21.0569 83.5254 18.266 83.2219 18.266 82.7797C18.266 82.3695 17.7279 82.0339 17.0703 82.0339C15.2734 82.0339 13.6995 80.1434 13.6995 77.9852C13.6995 76.9306 13.357 76.0678 12.9384 76.0678C12.5198 76.0678 12.1773 75.3966 12.1773 74.5763C12.1773 73.7559 12.5198 73.0847 12.9384 73.0847C13.357 73.0847 13.6995 72.2346 13.6995 71.1957C13.6995 70.0338 14.7163 68.3104 16.3382 66.7212C18.7698 64.3377 19.3384 64.1356 23.6027 64.1356C27.5002 64.1356 28.5239 64.4242 30.0971 65.9664C31.1245 66.9732 31.9655 68.3156 31.9655 68.9495C31.9655 69.5834 32.308 70.1017 32.7266 70.1017C33.1452 70.1017 33.4877 71.7797 33.4877 73.8305C33.4877 75.8814 33.8302 77.5593 34.2488 77.5593C34.6674 77.5593 35.0099 78.0739 35.0099 78.7026C35.0099 80.1874 39.9386 85.0169 41.4539 85.0169C42.0955 85.0169 42.6207 85.3525 42.6207 85.7627C42.6207 86.1729 43.3057 86.5085 44.1429 86.5085C44.98 86.5085 45.665 86.8441 45.665 87.2542C45.665 87.6644 46.35 88 47.1872 88C48.0244 88 48.7094 88.3356 48.7094 88.7458C48.7094 89.1559 49.3943 89.4915 50.2315 89.4915C51.0687 89.4915 51.7537 89.8271 51.7537 90.2373C51.7537 90.6475 52.4387 90.9831 53.2759 90.9831C54.1131 90.9831 54.798 91.3186 54.798 91.7288C54.798 93.7871 57.7868 91.8347 63.931 85.7627C67.6664 82.0712 71.1119 79.0508 71.5875 79.0508C72.064 79.0508 73.4134 78.0441 74.5862 76.8136C75.759 75.5831 77.1914 74.5763 77.7675 74.5763C78.3444 74.5763 79.3103 73.9051 79.9138 73.0847C80.5173 72.2644 81.6201 71.5932 82.3652 71.5932C83.1096 71.5932 83.7192 71.2576 83.7192 70.8475C83.7192 70.4373 84.4042 70.1017 85.2414 70.1017C86.0786 70.1017 86.7635 69.7661 86.7635 69.3559C86.7635 68.9458 87.4485 68.6102 88.2857 68.6102C89.1229 68.6102 89.8079 68.2746 89.8079 67.8644C89.8079 67.4542 90.4929 67.1186 91.33 67.1186C92.1672 67.1186 92.8522 66.7831 92.8522 66.3729C92.8522 65.9627 93.8797 65.6271 95.1355 65.6271C96.3913 65.6271 97.4187 65.2915 97.4187 64.8814C97.4187 64.4712 98.4462 64.1356 99.702 64.1356C100.958 64.1356 101.985 63.8 101.985 63.3898C101.985 62.9797 103.013 62.6441 104.268 62.6441C105.524 62.6441 106.552 62.3085 106.552 61.8983C106.552 61.4881 107.922 61.1525 109.596 61.1525C111.27 61.1525 112.64 60.8169 112.64 60.4068C112.64 59.9809 114.924 59.661 117.968 59.661H123.296V61.8983C123.296 63.1288 122.953 64.1356 122.534 64.1356C122.1 64.1356 121.773 66.3729 121.773 69.3559C121.773 72.339 121.447 74.5763 121.012 74.5763C120.589 74.5763 120.251 76.5652 120.251 79.0508C120.251 81.5365 119.913 83.5254 119.49 83.5254C119.056 83.5254 118.729 85.7627 118.729 88.7458C118.729 91.7288 118.403 93.9661 117.968 93.9661C117.549 93.9661 117.207 94.9729 117.207 96.2034C117.207 98.1923 117.46 98.4407 119.49 98.4407C121.266 98.4407 121.773 98.1096 121.773 96.9492C121.773 96.1288 122.116 95.4576 122.534 95.4576C122.958 95.4576 123.296 93.4687 123.296 90.9831C123.296 88.4974 123.633 86.5085 124.057 86.5085C124.491 86.5085 124.818 84.2712 124.818 81.2881C124.818 78.3051 125.144 76.0678 125.579 76.0678C126.002 76.0678 126.34 74.0788 126.34 71.5932C126.34 69.1076 126.678 67.1186 127.101 67.1186C127.536 67.1186 127.862 64.8814 127.862 61.8983C127.862 58.9153 128.189 56.678 128.623 56.678C129.042 56.678 129.384 55.3356 129.384 53.6949C129.384 52.0542 129.042 50.7119 128.623 50.7119C128.205 50.7119 127.862 49.3695 127.862 47.7288C127.862 46.0881 127.52 44.7458 127.101 44.7458C126.682 44.7458 126.34 44.2163 126.34 43.5689C126.34 42.9209 124.97 41.102 123.296 39.5254C121.287 37.6349 120.251 36.0047 120.251 34.7361C120.251 33.6786 119.909 32.8136 119.49 32.8136C119.072 32.8136 118.729 31.8068 118.729 30.5763C118.729 29.3458 119.072 28.339 119.49 28.339C119.909 28.339 120.251 27.4888 120.251 26.45C120.251 24.3492 124.777 19.3898 126.695 19.3898C127.337 19.3898 127.862 19.0542 127.862 18.6441C127.862 18.2339 129.575 17.8983 131.667 17.8983C133.76 17.8983 135.473 18.2339 135.473 18.6441ZM176.571 112.61C176.571 113.02 176.033 113.356 175.376 113.356C173.392 113.356 172.005 115.33 172.005 118.15C172.005 121.528 173.614 121.679 176.571 118.576C179.569 115.432 182.662 115.545 186.11 118.925C189.365 122.113 189.632 125.236 186.88 127.932C185.354 129.429 184.255 129.763 180.856 129.763C178.222 129.763 176.583 129.423 176.383 128.837C176.013 127.747 173.527 129.851 173.527 131.254C173.527 132.726 175.622 134.237 177.659 134.237C178.735 134.237 179.616 134.573 179.616 134.983C179.616 135.393 180.643 135.729 181.899 135.729C183.155 135.729 184.182 135.393 184.182 134.983C184.182 134.573 184.867 134.237 185.704 134.237C186.542 134.237 187.227 133.902 187.227 133.492C187.227 133.081 187.765 132.746 188.422 132.746C189.96 132.746 191.793 130.95 191.793 129.443C191.793 128.798 192.136 128.271 192.554 128.271C192.984 128.271 193.315 126.152 193.315 123.404C193.315 118.634 193.248 118.47 189.91 115.201C186.574 111.931 186.406 111.864 181.538 111.864C178.734 111.864 176.571 112.189 176.571 112.61ZM77.6305 124.542C77.6305 124.953 76.9456 125.288 76.1084 125.288C75.2712 125.288 74.5862 125.624 74.5862 126.034C74.5862 126.444 74.0572 126.78 73.4103 126.78C71.8874 126.78 68.4975 130.101 68.4975 131.594C68.4975 132.227 68.155 132.746 67.7365 132.746C67.3179 132.746 66.9754 133.753 66.9754 134.983C66.9754 136.214 66.6329 137.22 66.2143 137.22C65.7957 137.22 65.4532 138.898 65.4532 140.949C65.4532 143 65.7957 144.678 66.2143 144.678C66.6329 144.678 66.9754 145.349 66.9754 146.169C66.9754 146.99 67.3179 147.661 67.7365 147.661C68.155 147.661 68.4975 148.176 68.4975 148.804C68.4975 150.289 73.4263 155.119 74.9416 155.119C75.5832 155.119 76.1084 155.454 76.1084 155.864C76.1084 156.307 78.8993 156.61 82.9581 156.61C87.017 156.61 89.8079 156.307 89.8079 155.864C89.8079 155.454 90.333 155.119 90.9746 155.119C92.4899 155.119 97.4187 150.289 97.4187 148.804C97.4187 148.176 97.7612 147.661 98.1798 147.661C98.603 147.661 98.9409 145.672 98.9409 143.186V138.712H96.6576C94.4566 138.712 94.3744 138.833 94.3744 142.092C94.3744 144.956 93.9702 145.869 91.7357 148.059C90.2851 149.481 88.5726 150.644 87.9303 150.644C87.2887 150.644 86.7635 150.98 86.7635 151.39C86.7635 151.8 84.8707 152.136 82.5578 152.136C78.591 152.136 78.158 151.945 74.947 148.799C72.7117 146.609 71.5419 144.816 71.5419 143.579C71.5419 142.543 71.1994 141.695 70.7808 141.695C70.3622 141.695 70.0197 141.024 70.0197 140.203C70.0197 139.383 70.3622 138.712 70.7808 138.712C71.1994 138.712 71.5419 137.862 71.5419 136.823C71.5419 134.304 76.1761 129.763 78.7471 129.763C79.8072 129.763 80.6749 129.427 80.6749 129.017C80.6749 128.607 81.7023 128.271 82.9581 128.271C84.9879 128.271 85.2414 128.023 85.2414 126.034C85.2414 123.847 85.1569 123.797 81.436 123.797C79.343 123.797 77.6305 124.132 77.6305 124.542ZM146.128 184.629C146.128 185.986 147.911 187.932 149.153 187.932C151.071 187.932 153.739 191.6 153.739 194.238C153.739 195.692 153.396 196.881 152.978 196.881C152.559 196.881 152.217 197.553 152.217 198.373C152.217 199.367 151.709 199.864 150.695 199.864C149.857 199.864 149.172 200.2 149.172 200.61C149.172 201.02 147.958 201.356 146.474 201.356C142.488 201.356 140.039 198.673 140.039 194.305C140.039 191.036 139.958 190.915 137.756 190.915H135.473V195.39C135.473 197.875 135.811 199.864 136.234 199.864C136.653 199.864 136.995 200.392 136.995 201.036C136.995 202.543 138.828 204.339 140.366 204.339C141.023 204.339 141.562 204.675 141.562 205.085C141.562 205.506 143.725 205.831 146.528 205.831C151.396 205.831 151.564 205.764 154.9 202.494C158.238 199.225 158.305 199.06 158.305 194.291C158.305 191.543 157.974 189.424 157.544 189.424C157.126 189.424 156.783 188.905 156.783 188.272C156.783 187.638 155.942 186.295 154.915 185.288C152.641 183.059 146.128 182.572 146.128 184.629ZM217.67 236.407C217.67 236.817 216.985 237.153 216.148 237.153C215.311 237.153 214.626 237.488 214.626 237.898C214.626 238.308 214.088 238.644 213.43 238.644C211.892 238.644 210.059 240.44 210.059 241.947C210.059 242.591 209.717 243.119 209.298 243.119C208.851 243.119 208.537 245.736 208.537 249.477V255.836L211.942 259.172C214.177 261.362 216.007 262.508 217.27 262.508C218.327 262.508 219.192 262.844 219.192 263.254C219.192 263.664 220.22 264 221.475 264C222.731 264 223.759 263.664 223.759 263.254C223.759 262.844 224.786 262.508 226.042 262.508C227.298 262.508 228.325 262.173 228.325 261.763C228.325 261.353 228.863 261.017 229.521 261.017C231.059 261.017 232.892 259.221 232.892 257.714C232.892 257.07 233.234 256.542 233.653 256.542C234.071 256.542 234.414 255.871 234.414 255.051C234.414 254.231 234.756 253.559 235.175 253.559C235.593 253.559 235.936 251.881 235.936 249.831C235.936 247.78 235.593 246.102 235.175 246.102C234.756 246.102 234.414 245.431 234.414 244.61C234.414 243.79 234.071 243.119 233.653 243.119C233.234 243.119 232.892 242.591 232.892 241.947C232.892 241.302 232.402 240.295 231.804 239.71C231.207 239.124 230.179 238.644 229.521 238.644C228.863 238.644 228.325 238.308 228.325 237.898C228.325 237.488 227.64 237.153 226.803 237.153C225.966 237.153 225.281 236.817 225.281 236.407C225.281 235.997 223.568 235.661 221.475 235.661C219.382 235.661 217.67 235.997 217.67 236.407ZM223.759 242.373C223.759 242.783 224.297 243.119 224.954 243.119C226.492 243.119 228.325 244.914 228.325 246.422C228.325 247.066 228.668 247.593 229.086 247.593C229.505 247.593 229.847 248.6 229.847 249.831C229.847 251.061 229.505 252.068 229.086 252.068C228.668 252.068 228.325 252.595 228.325 253.239C228.325 254.982 226.403 256.542 224.257 256.542C223.215 256.542 222.163 256.962 221.919 257.475C221.564 258.22 221.386 258.22 221.032 257.475C220.787 256.962 220.086 256.542 219.474 256.542C218.034 256.542 214.626 253.203 214.626 251.791C214.626 251.192 214.198 250.505 213.674 250.265C212.913 249.918 212.913 249.743 213.674 249.396C214.198 249.156 214.626 248.469 214.626 247.87C214.626 246.428 218.047 243.119 219.538 243.119C220.185 243.119 220.714 242.783 220.714 242.373C220.714 241.963 221.399 241.627 222.236 241.627C223.074 241.627 223.759 241.963 223.759 242.373ZM97.4187 310.983C97.4187 311.393 96.0488 311.729 94.3744 311.729C92.7 311.729 91.33 312.064 91.33 312.475C91.33 312.885 90.8072 313.22 90.1686 313.22C88.6579 313.22 82.197 319.551 82.197 321.031C82.197 321.657 81.8546 322.169 81.436 322.169C81.0174 322.169 80.6749 322.841 80.6749 323.661C80.6749 324.481 80.3324 325.153 79.9138 325.153C79.4701 325.153 79.1527 327.638 79.1527 331.119C79.1527 334.599 79.4701 337.085 79.9138 337.085C80.3324 337.085 80.6749 338.018 80.6749 339.157C80.6749 340.374 81.3035 341.673 82.197 342.305C83.0342 342.896 83.7192 343.833 83.7192 344.387C83.7192 345.753 85.6227 347.525 87.09 347.525C87.7476 347.525 88.2857 347.861 88.2857 348.271C88.2857 348.681 88.9707 349.017 89.8079 349.017C90.6451 349.017 91.33 349.353 91.33 349.763C91.33 350.173 92.3575 350.508 93.6133 350.508C94.8691 350.508 95.8965 350.844 95.8965 351.254C95.8965 351.669 97.9264 352 100.463 352C103 352 105.03 351.669 105.03 351.254C105.03 350.844 106.057 350.508 107.313 350.508C108.569 350.508 109.596 350.173 109.596 349.763C109.596 349.353 110.121 349.017 110.763 349.017C112.278 349.017 117.207 344.187 117.207 342.703C117.207 342.074 117.549 341.559 117.968 341.559C118.387 341.559 118.729 340.888 118.729 340.068C118.729 339.247 119.072 338.576 119.49 338.576C119.947 338.576 120.251 335.593 120.251 331.119C120.251 326.644 119.947 323.661 119.49 323.661C119.072 323.661 118.729 322.99 118.729 322.169C118.729 321.349 118.387 320.678 117.968 320.678C117.549 320.678 117.207 320.16 117.207 319.526C117.207 318.033 113.817 314.712 112.294 314.712C111.647 314.712 111.118 314.376 111.118 313.966C111.118 313.556 110.433 313.22 109.596 313.22C108.759 313.22 108.074 312.885 108.074 312.475C108.074 312.064 106.704 311.729 105.03 311.729C103.355 311.729 101.985 311.393 101.985 310.983C101.985 310.573 100.958 310.237 99.702 310.237C98.4462 310.237 97.4187 310.573 97.4187 310.983ZM103.507 316.949C103.507 317.359 104.192 317.695 105.03 317.695C105.867 317.695 106.552 318.031 106.552 318.441C106.552 318.851 107.081 319.186 107.728 319.186C109.251 319.186 112.64 322.508 112.64 324C112.64 324.634 112.983 325.153 113.401 325.153C113.82 325.153 114.163 326.159 114.163 327.39C114.163 328.62 114.505 329.627 114.924 329.627C115.342 329.627 115.685 330.298 115.685 331.119C115.685 331.939 115.342 332.61 114.924 332.61C114.505 332.61 114.163 333.617 114.163 334.847C114.163 336.078 113.82 337.085 113.401 337.085C112.983 337.085 112.64 337.599 112.64 338.228C112.64 340.107 107.579 344.542 105.435 344.542C104.375 344.542 103.507 344.878 103.507 345.288C103.507 345.698 101.795 346.034 99.702 346.034C97.609 346.034 95.8965 345.698 95.8965 345.288C95.8965 344.878 95.2116 344.542 94.3744 344.542C93.5372 344.542 92.8522 344.207 92.8522 343.797C92.8522 343.386 92.3141 343.051 91.6565 343.051C90.1184 343.051 88.2857 341.255 88.2857 339.748C88.2857 339.104 87.9432 338.576 87.5246 338.576C87.106 338.576 86.7635 337.905 86.7635 337.085C86.7635 336.264 86.4211 335.593 86.0025 335.593C85.5793 335.593 85.2414 333.604 85.2414 331.119C85.2414 328.633 85.5793 326.644 86.0025 326.644C86.4211 326.644 86.7635 326.132 86.7635 325.506C86.7635 323.583 93.3462 317.695 95.4962 317.695C96.5534 317.695 97.4187 317.359 97.4187 316.949C97.4187 316.539 98.7887 316.203 100.463 316.203C102.137 316.203 103.507 316.539 103.507 316.949Z" fill="#02588D"/>
</svg>